<?xml version="1.0" encoding="utf-8"?>
<!-- Generator: Adobe Illustrator 24.1.0, SVG Export Plug-In . SVG Version: 6.00 Build 0)  -->
<svg version="1.1" id="Layer_1" xmlns="http://www.w3.org/2000/svg" xmlns:xlink="http://www.w3.org/1999/xlink" x="0px" y="0px"
	 viewBox="0 0 502.02 150.61" style="enable-background:new 0 0 502.02 150.61;" xml:space="preserve">
<style type="text/css">
	.st0{fill-rule:evenodd;clip-rule:evenodd;fill:#003476;}
	.st1{fill:#003476;}
	.st2{fill:#00AEEF;}
	.st3{fill:#002169;}
</style>
<g>
	<g>
		<g>
			<path class="st0" d="M43.35,29.3c0.35,0,0.6-0.1,0.85-0.3c0.13-0.13,0.2-0.31,0.25-0.5c0.02-0.09,0.05-0.19,0.05-0.29
				c0-0.35-0.1-0.6-0.35-0.79c-0.2-0.2-0.44-0.35-0.79-0.35c-0.3,0-0.59,0.15-0.79,0.35c-0.2,0.19-0.35,0.44-0.35,0.79
				c0,0.3,0.15,0.59,0.35,0.79C42.76,29.2,43.05,29.3,43.35,29.3"/>
			<path class="st0" d="M24.04,51.28c0.3,0,0.54-0.1,0.75-0.3c0.15-0.2,0.3-0.44,0.3-0.69c0-0.3-0.15-0.54-0.3-0.74
				c-0.21-0.15-0.45-0.3-0.75-0.3c-0.29,0-0.54,0.15-0.74,0.3c-0.2,0.2-0.29,0.45-0.29,0.74c0,0.25,0.1,0.49,0.29,0.69
				C23.5,51.18,23.75,51.28,24.04,51.28"/>
			<path class="st0" d="M45.33,35.64c0.11,0,0.21-0.02,0.31-0.05c0.19-0.04,0.37-0.12,0.53-0.24c0.13-0.13,0.2-0.31,0.25-0.5
				c0.03-0.09,0.05-0.19,0.05-0.29c0-0.3-0.09-0.59-0.34-0.79c-0.2-0.2-0.45-0.34-0.79-0.34c-0.3,0-0.59,0.14-0.79,0.34
				c-0.2,0.2-0.34,0.5-0.34,0.79c0,0.29,0.15,0.59,0.34,0.79c0.12,0.13,0.29,0.2,0.47,0.24C45.11,35.61,45.22,35.64,45.33,35.64"/>
			<path class="st0" d="M28.89,54.16c-0.25,0.2-0.35,0.49-0.35,0.79s0.1,0.59,0.35,0.79c0.13,0.12,0.29,0.19,0.47,0.24
				c0.1,0.04,0.21,0.06,0.32,0.06c0.11,0,0.22-0.02,0.33-0.06c0.18-0.05,0.35-0.12,0.47-0.24c0.25-0.2,0.35-0.5,0.35-0.79
				s-0.1-0.59-0.35-0.79c-0.2-0.2-0.49-0.35-0.79-0.35C29.39,53.81,29.09,53.95,28.89,54.16"/>
			<path class="st0" d="M16.03,78.26c0.29,0,0.59-0.14,0.79-0.34l-0.02-0.02c0.2-0.19,0.32-0.47,0.32-0.77h0.05
				c0-0.29-0.1-0.59-0.35-0.79c-0.12-0.12-0.29-0.19-0.47-0.24c-0.1-0.04-0.21-0.05-0.32-0.05c-0.12,0-0.22,0.02-0.32,0.05
				c-0.18,0.05-0.35,0.12-0.47,0.24c-0.25,0.2-0.35,0.5-0.35,0.79c0,0.3,0.1,0.6,0.35,0.79C15.43,78.11,15.72,78.26,16.03,78.26"/>
			<path class="st0" d="M24.86,106.19c-0.1-0.03-0.21-0.06-0.32-0.06c-0.11,0-0.22,0.02-0.32,0.06c-0.18,0.05-0.35,0.11-0.47,0.24
				c-0.25,0.2-0.35,0.5-0.35,0.79c0,0.3,0.1,0.59,0.35,0.79c0.2,0.2,0.49,0.35,0.79,0.35c0.29,0,0.59-0.15,0.79-0.35
				c0.24-0.2,0.35-0.5,0.35-0.79c0-0.29-0.1-0.59-0.35-0.79C25.2,106.3,25.04,106.24,24.86,106.19"/>
			<path class="st0" d="M99.84,33.96c0.2-0.2,0.35-0.5,0.35-0.8c0-0.29-0.15-0.59-0.35-0.79c-0.2-0.2-0.5-0.34-0.84-0.34
				c-0.29,0-0.59,0.14-0.79,0.34c-0.2,0.2-0.34,0.44-0.34,0.79c0,0.3,0.15,0.6,0.34,0.8c0.2,0.2,0.5,0.3,0.79,0.3
				C99.34,34.25,99.64,34.15,99.84,33.96"/>
			<path class="st0" d="M100.58,26.53c0.35,0,0.65-0.1,0.84-0.29c0.2-0.2,0.35-0.5,0.35-0.79c0-0.35-0.15-0.59-0.35-0.79
				c-0.2-0.2-0.5-0.35-0.84-0.35c-0.29,0-0.59,0.15-0.79,0.35c-0.2,0.2-0.35,0.44-0.35,0.79c0,0.3,0.15,0.59,0.35,0.79
				C99.99,26.43,100.29,26.53,100.58,26.53"/>
			<path class="st0" d="M119.67,49.25c0.1,0.03,0.21,0.05,0.32,0.05c0.11,0,0.23-0.02,0.33-0.05c0.2-0.05,0.38-0.12,0.51-0.25
				c0.2-0.19,0.35-0.49,0.35-0.79c0-0.3-0.15-0.6-0.35-0.79c-0.2-0.2-0.49-0.35-0.84-0.35c-0.3,0-0.6,0.15-0.8,0.35
				c-0.2,0.2-0.34,0.49-0.34,0.79c0,0.29,0.15,0.59,0.34,0.79C119.32,49.13,119.49,49.2,119.67,49.25"/>
			<path class="st0" d="M115.63,55.24c0.12,0,0.22-0.02,0.33-0.05c0.2-0.04,0.38-0.12,0.51-0.25c0.2-0.2,0.35-0.49,0.35-0.79
				c0-0.3-0.15-0.6-0.35-0.8c-0.2-0.2-0.49-0.35-0.84-0.35c-0.3,0-0.59,0.15-0.79,0.35c-0.2,0.2-0.34,0.5-0.34,0.8
				c0,0.3,0.15,0.59,0.34,0.79c0.12,0.12,0.29,0.2,0.47,0.24C115.41,55.22,115.52,55.24,115.63,55.24"/>
			<path class="st0" d="M128.55,74.01h-0.05c-0.3,0-0.59,0.14-0.79,0.35c-0.2,0.2-0.35,0.49-0.35,0.79c0,0.3,0.15,0.59,0.35,0.79
				c0.2,0.2,0.5,0.35,0.79,0.35h0.05c0.3,0,0.6-0.15,0.79-0.35c0.2-0.2,0.35-0.5,0.35-0.79c0-0.3-0.15-0.59-0.35-0.79
				C129.15,74.15,128.85,74.05,128.55,74.01"/>
			<path class="st0" d="M122.87,104.79c-0.06-0.02-0.13-0.03-0.2-0.04c-0.02,0-0.33,0.01-0.43,0.05c-0.18,0.05-0.35,0.12-0.47,0.24
				c-0.2,0.2-0.35,0.49-0.35,0.79c0,0.29,0.15,0.59,0.35,0.79c0.2,0.2,0.49,0.35,0.79,0.35c0.34,0,0.64-0.15,0.84-0.35
				c0.2-0.2,0.35-0.5,0.35-0.79c0-0.3-0.15-0.6-0.35-0.79C123.26,104.9,123.07,104.84,122.87,104.79"/>
			<path class="st0" d="M90.58,126.14c-0.3,0-0.54,0.1-0.74,0.3c-0.15,0.2-0.3,0.45-0.3,0.69c0,0.3,0.15,0.55,0.3,0.74
				c0.13,0.1,0.29,0.16,0.46,0.2c0.09,0.03,0.18,0.04,0.29,0.04c0.11,0,0.22-0.02,0.32-0.05c0.08-0.03,0.15-0.07,0.22-0.11
				c0.01,0,0.01-0.01,0.02-0.01c0.06-0.04,0.13-0.06,0.18-0.12c0.2-0.15,0.3-0.39,0.3-0.69c0-0.24-0.09-0.49-0.3-0.69
				C91.13,126.23,90.88,126.14,90.58,126.14"/>
			<path class="st0" d="M57.16,127.42c0-0.3-0.15-0.59-0.35-0.79c-0.2-0.2-0.5-0.3-0.79-0.3c-0.3,0-0.6,0.1-0.8,0.3
				c-0.2,0.2-0.34,0.49-0.34,0.79c0,0.3,0.15,0.59,0.34,0.79c0.2,0.2,0.5,0.35,0.8,0.35c0.3,0,0.59-0.15,0.79-0.35
				C57.01,128.02,57.16,127.72,57.16,127.42"/>
			<path class="st0" d="M49.34,29.3c0.89-0.31,1.77-0.65,2.66-0.99c0.58,0.2,1.15,0.38,1.7,0.55c0.65,0.15,1.29,0.3,1.93,0.4
				c0.25,0,0.49-0.15,0.49-0.4c0.05-0.25-0.1-0.44-0.35-0.49c-0.65-0.1-1.29-0.2-1.88-0.35c-0.21-0.07-0.42-0.14-0.64-0.21
				c0.82-0.34,1.63-0.69,2.44-1.05c0.88,0.49,1.79,0.69,2.75,0.86c0.2,0.05,0.4,0.11,0.6,0.16c0.2,0.04,0.45-0.1,0.5-0.35
				c0.05-0.25-0.1-0.5-0.35-0.55c-0.2-0.05-0.4-0.05-0.6-0.1c-0.65-0.14-1.27-0.26-1.88-0.49c0.18-0.09,0.36-0.16,0.54-0.25
				c0.62-0.31,1.24-0.62,1.86-0.95c1.16,0.3,3.59,0.35,3.63,0.35c0.25,0.05,0.45-0.15,0.45-0.39c0-0.25-0.2-0.45-0.39-0.45
				c-0.1,0-1.69-0.07-2.44-0.17c1.58-0.84,3.15-1.74,4.77-2.7c0.2-0.15,0.3-0.4,0.15-0.64c-0.1-0.2-0.4-0.25-0.59-0.15
				c-1.74,1.06-3.44,2.01-5.12,2.91c0.1-0.33,0.23-0.68,0.37-1.03c0.1-0.1,0.15-0.25,0.2-0.35c0.05-0.1,0.09-0.25,0.2-0.35
				c0.09-0.2,0.05-0.5-0.15-0.59c-0.25-0.15-0.5-0.05-0.59,0.15c0,0-0.95,2.11-1.06,2.71c-0.56,0.29-1.11,0.58-1.67,0.85
				c-0.21,0.1-0.41,0.19-0.62,0.28c0.05-0.29,0.1-0.57,0.18-0.83c0.15-0.54,0.35-1.04,0.69-1.48c0.15-0.2,0.1-0.5-0.1-0.65
				c-0.2-0.15-0.5-0.1-0.64,0.1c-0.4,0.59-0.64,1.19-0.79,1.78c-0.12,0.51-0.21,1.01-0.26,1.51c-0.96,0.44-1.91,0.85-2.88,1.25
				c0.1-0.39,0.21-0.77,0.37-1.17c0.2-0.59,0.5-1.24,0.89-1.93c0.09-0.2,0.05-0.44-0.2-0.59c-0.2-0.1-0.45-0.05-0.59,0.2
				c-0.4,0.69-0.69,1.38-0.94,2.03c-0.23,0.65-0.38,1.26-0.52,1.87c-0.79,0.31-1.59,0.61-2.4,0.9c-0.25,0.05-0.34,0.29-0.25,0.54
				C48.85,29.3,49.1,29.4,49.34,29.3"/>
			<path class="st0" d="M21.27,75.39c0.1-1.1,0.13-2.31,0.11-3.57c0.81-0.61,1.32-1.57,1.82-2.58c0,0,0.5-1,0.74-1.38
				c0.15-0.2,0.1-0.5-0.1-0.65c-0.2-0.1-0.49-0.05-0.6,0.15c-0.34,0.45-0.59,0.99-0.84,1.49c-0.33,0.65-0.66,1.29-1.06,1.78
				c-0.04-1.18-0.1-2.41-0.17-3.67c0.76-0.42,1.17-1.14,1.58-1.87c0.25-0.4,0.45-0.84,0.74-1.19c0.15-0.15,0.15-0.45-0.05-0.59
				c-0.2-0.15-0.44-0.15-0.59,0.05c-0.35,0.4-0.59,0.84-0.84,1.29c-0.28,0.49-0.54,0.95-0.9,1.29c-0.07-1.05-0.13-2.11-0.18-3.17
				c0.73-0.59,1.43-2.62,1.68-3.01c0.14-0.2,0.1-0.44-0.05-0.6c-0.2-0.15-0.5-0.1-0.64,0.1c-0.35,0.45-0.87,1.99-1.03,2.27
				c-0.08-2.23-0.07-4.4,0.14-6.38c0.05-0.25-0.15-0.5-0.4-0.5c-0.25-0.05-0.44,0.15-0.5,0.4c-0.19,1.87-0.2,3.88-0.14,5.94
				c-0.14-0.21-0.75-1.28-0.85-1.44c-0.1-0.2-0.34-0.29-0.59-0.2c-0.2,0.15-0.3,0.4-0.2,0.6c0.1,0.15,1.27,2.02,1.7,2.48
				c0.05,1.06,0.1,2.12,0.16,3.17c-0.7-0.61-1.7-2.14-1.7-2.14c-0.1-0.2-0.35-0.29-0.59-0.2c-0.2,0.05-0.35,0.35-0.25,0.54
				c0.49,1.22,1.68,2.24,2.62,2.98c0.08,1.32,0.15,2.6,0.19,3.83c-0.32-0.34-0.67-0.74-0.97-1.16c-0.5-0.65-0.84-1.63-1.04-1.78
				c-0.19-0.15-0.64,0.1-0.64,0.15c-0.2,0.35,0.3,1.24,0.99,2.18c0.56,0.74,1.24,1.53,1.7,1.86c0.01,1.22-0.01,2.38-0.11,3.43
				c0,0.25,0.15,0.44,0.4,0.5C21.02,75.79,21.22,75.64,21.27,75.39"/>
			<path class="st0" d="M33.7,46.13c0.2-0.15,0.25-0.4,0.15-0.59c-0.1-0.24-0.4-0.29-0.59-0.2c-0.44,0.25-0.84,0.5-1.19,0.75
				c-0.37,0.25-0.69,0.46-1.08,0.59c0.45-0.81,0.92-1.69,1.4-2.64c0.88,0.06,1.64-0.42,2.4-0.87c0.4-0.25,0.74-0.5,1.09-0.59
				c0.25-0.1,0.35-0.35,0.3-0.55c-0.1-0.24-0.35-0.34-0.55-0.3c-0.44,0.15-0.89,0.4-1.29,0.69c-0.5,0.29-0.99,0.59-1.49,0.71
				c0-0.01,0-0.01,0-0.02c0.37-0.72,0.75-1.47,1.15-2.23c1.15-0.1,2.86-1.28,3.16-1.48c0.2-0.1,0.25-0.4,0.1-0.6
				c-0.1-0.2-0.4-0.25-0.6-0.15c-0.29,0.2-1.59,1.1-2.15,1.24c1.23-2.32,4.13-6.94,4.18-6.94c0.1-0.2,0.05-0.49-0.15-0.59
				c-0.22-0.14-0.44-0.06-0.59,0.1c-1.46,2.07-2.76,4.29-3.93,6.47c-0.1-0.5-0.24-2.36-0.24-2.46c0.05-0.25-0.1-0.5-0.35-0.54
				c-0.25,0-0.44,0.15-0.5,0.4c-0.05,0.15,0.27,3.1,0.44,3.81c-0.42,0.79-0.81,1.56-1.2,2.32c-0.05-0.1-0.09-0.19-0.13-0.28
				c-0.35-0.75-0.74-1.49-0.54-2.18c0.05-0.25-0.1-0.5-0.35-0.55c-0.2-0.05-0.45,0.1-0.5,0.35c-0.29,0.99,0.15,1.88,0.59,2.77
				c0.15,0.31,0.29,0.61,0.4,0.89c-0.54,1.05-1.05,2.03-1.54,2.92c-0.16-0.55-0.3-1.26-0.4-1.89c0-0.2-0.05-0.4-0.05-0.55
				c0-0.15-0.04-0.24-0.04-0.39v-0.05c0-0.25-0.2-0.45-0.45-0.45c-0.25,0-0.45,0.2-0.4,0.45v0.1v0.45c0.05,0.2,0.05,0.4,0.1,0.54
				c0.14,0.96,0.42,2.18,0.67,2.8c-0.36,0.62-0.72,1.18-1.07,1.65c-0.15,0.15-0.1,0.45,0.1,0.59c0.2,0.15,0.5,0.1,0.59-0.1
				c0.39-0.53,0.8-1.16,1.21-1.85c0.92-0.08,1.47-0.44,2.16-0.87C32.86,46.58,33.2,46.38,33.7,46.13"/>
			<path class="st0" d="M96.97,27.92c-0.76-0.25-1.51-0.53-2.26-0.83c-0.03-0.04-0.08-0.1-0.12-0.16c-0.15-0.64-0.35-1.28-0.59-1.93
				c-0.25-0.69-0.54-1.38-0.94-2.07c-0.1-0.2-0.39-0.25-0.6-0.15c-0.2,0.1-0.3,0.4-0.15,0.6c0.35,0.65,0.65,1.29,0.89,1.93
				c0.15,0.44,0.28,0.89,0.38,1.35c-0.96-0.4-1.92-0.82-2.88-1.27c-0.09-0.55-0.15-1.11-0.33-1.66c-0.15-0.59-0.4-1.19-0.79-1.78
				c-0.15-0.2-0.44-0.25-0.64-0.1c-0.2,0.15-0.2,0.45-0.1,0.65c0.34,0.45,0.55,0.94,0.69,1.48c0.09,0.32,0.15,0.64,0.2,0.95
				c-0.22-0.1-0.43-0.2-0.65-0.31c-0.86-0.43-1.72-0.88-2.57-1.35c0-0.29,0.04-0.48,0.04-0.72c0.1-0.5,0.2-0.94-0.2-1.59
				c-0.1-0.2-0.34-0.25-0.59-0.15c-0.2,0.15-0.25,0.4-0.15,0.59c0.24,0.39,0.15,0.65,0.1,0.99c-0.02,0.14-0.04,0.27-0.05,0.41
				c-1.45-0.8-2.91-1.65-4.4-2.53c-0.2-0.1-0.49-0.05-0.6,0.15c-0.15,0.2-0.05,0.49,0.15,0.59c1.35,0.82,2.69,1.61,4.02,2.36
				c-0.05,0.02-0.11,0.05-0.16,0.07c-0.45,0.25-0.84,0.45-1.49,0.45c-0.25,0-0.44,0.25-0.44,0.44c0,0.25,0.2,0.44,0.44,0.44
				c0.84-0.05,1.34-0.24,1.88-0.54c0.23-0.1,0.47-0.21,0.73-0.33c0.97,0.53,1.93,1.04,2.88,1.52c0.14,0.07,0.29,0.14,0.43,0.2
				c-0.54,0.2-1.11,0.32-1.71,0.44c-0.2,0.05-0.4,0.1-0.65,0.15c-0.2,0.05-0.35,0.25-0.29,0.49c0.04,0.25,0.24,0.4,0.49,0.35
				l0.59-0.15c0.9-0.17,1.77-0.36,2.6-0.79c0.77,0.36,1.53,0.71,2.3,1.04c-0.11,0.03-0.23,0.07-0.35,0.1
				c-0.64,0.2-1.23,0.3-1.88,0.39c-0.25,0.05-0.4,0.25-0.4,0.5c0.05,0.25,0.3,0.4,0.5,0.4c0.69-0.1,1.34-0.25,1.98-0.45
				c0.46-0.1,0.93-0.25,1.41-0.43c0.97,0.4,1.96,0.78,2.96,1.12c0.25,0.1,0.49-0.05,0.54-0.25C97.31,28.26,97.16,28.01,96.97,27.92"
				/>
			<path class="st0" d="M114.11,43.09c0.01-0.13,0.05-0.27,0.08-0.43c0.05-0.2,0.1-0.35,0.15-0.54c0.15-0.94,0.25-1.93,0.25-2.98
				c0-0.25-0.2-0.44-0.44-0.44c-0.25,0-0.45,0.19-0.45,0.44c0,0.98-0.1,1.91-0.25,2.79c-0.38-0.68-0.79-1.34-1.21-2.01
				c0.02-0.06,0.11-0.52,0.17-0.68c0.15-0.84,0.2-1.78,0.15-2.77c0-0.2-0.2-0.39-0.44-0.39c-0.25,0-0.45,0.25-0.4,0.44
				c0.04,0.81-0.04,1.62-0.16,2.32c-0.47-0.71-0.95-1.43-1.46-2.14c0.15-0.45,0.24-0.95,0.28-1.46c0.04-0.59,0.1-1.24,0.04-1.83
				c0-0.26-0.2-0.45-0.44-0.45c-0.25,0-0.4,0.2-0.4,0.45c0,0.59,0,1.18-0.1,1.73c-0.02,0.2-0.05,0.39-0.08,0.58
				c-0.3-0.42-0.62-0.83-0.96-1.27c-0.49-0.69-1.04-1.34-1.58-1.98c-0.15-0.2-0.45-0.2-0.65-0.05c-0.15,0.15-0.2,0.39-0.05,0.59
				c0.55,0.64,1.1,1.33,1.59,1.98c0.28,0.37,0.57,0.75,0.85,1.14c-0.61-0.12-1.2-0.29-1.74-0.79c-0.2-0.15-0.45-0.15-0.65,0.05
				c-0.15,0.15-0.15,0.44,0.05,0.59c0.89,0.79,1.78,0.94,2.72,1.14c0.11,0,0.24,0.02,0.39,0.06c0.56,0.8,1.1,1.6,1.61,2.41
				c-0.23-0.02-0.46-0.08-0.66-0.15c-0.5-0.1-0.89-0.3-1.34-0.45c-0.2-0.14-0.45-0.05-0.55,0.2c-0.15,0.2-0.04,0.49,0.2,0.6
				c0.44,0.2,0.94,0.4,1.43,0.55c0.47,0.08,0.95,0.16,1.45,0.15c0.44,0.71,0.87,1.42,1.27,2.14c-0.25-0.05-0.51-0.12-0.75-0.22
				c-0.54-0.15-1.09-0.4-1.58-0.69c-0.25-0.09-0.49-0.05-0.6,0.2c-0.15,0.2-0.05,0.44,0.15,0.59c0.59,0.3,1.14,0.54,1.73,0.74
				c0.51,0.17,1.02,0.25,1.56,0.31c0.75,1.38,1.46,2.75,2.1,4.14c0.1,0.2,0.34,0.3,0.54,0.2c0.25-0.1,0.35-0.35,0.25-0.59
				C115.58,45.89,114.88,44.49,114.11,43.09"/>
			<path class="st0" d="M121.18,63.96c-0.15-0.2-0.45-0.2-0.64-0.1c-0.2,0.14-0.2,0.44-0.05,0.64c0.49,0.69,1.09,1.34,1.63,1.88
				c0.53,0.53,1.12,0.98,1.73,1.39l0.11,2.52c0,0.25,0.2,0.45,0.44,0.4c0.25,0,0.44-0.2,0.4-0.44l-0.1-2.5
				c0.12-0.11,0.24-0.21,0.34-0.32c0.15-0.14,0.3-0.29,0.49-0.49c0.75-0.89,1.54-2.03,2.23-3.37c0.1-0.25,0.05-0.5-0.2-0.59
				c-0.2-0.15-0.44-0.05-0.54,0.15c-0.69,1.34-2.31,3.4-2.37,3.47l-0.15-3.81c0.51-0.48,0.99-1.08,1.38-1.74
				c0.44-0.74,0.84-1.58,1.19-2.42c0.1-0.25-0.05-0.5-0.25-0.59c-0.25-0.1-0.5,0.05-0.59,0.25c-0.3,0.84-0.7,1.64-1.09,2.33
				c-0.2,0.36-0.44,0.68-0.69,0.96l-0.11-2.98c0.95-0.9,1.37-2.29,1.79-3.73V54.8c0.05-0.2-0.05-0.44-0.3-0.54
				c-0.25-0.05-0.49,0.1-0.54,0.3v0.05c-0.27,0.95-0.57,1.89-1,2.64l-0.19-4.87c-0.05-0.25-0.25-0.45-0.5-0.45
				c-0.25,0-0.4,0.2-0.4,0.45l0.22,5.38c-0.02-0.01-1.26-0.87-1.85-1.52c-0.15-0.2-0.45-0.2-0.65-0.05c-0.15,0.2-0.15,0.44,0,0.64
				c0.65,0.69,1.34,1.29,1.98,1.63c0.15,0.1,0.51,0.28,0.56,0.3l0.13,3.27c-0.08-0.03-0.18-0.07-0.25-0.11
				c-0.69-0.35-1.39-0.99-2.08-1.83c-0.15-0.15-0.45-0.2-0.6-0.05c-0.2,0.15-0.25,0.44-0.1,0.64c0.79,0.89,1.53,1.63,2.37,2.03
				c0.15,0.05,0.3,0.15,0.5,0.2c0.06,0.02,0.13,0.04,0.19,0.06l0.15,3.67c-0.36-0.28-0.71-0.59-1.04-0.92
				C122.17,65.24,121.67,64.6,121.18,63.96"/>
			<path class="st0" d="M129.15,85.89c-0.69,0.65-2.31,1.7-2.33,1.7c0.75-1.73,1.52-3.52,2.33-5.41c0.05-0.2-0.05-0.45-0.25-0.54
				c-0.24-0.1-0.49,0-0.59,0.2c-0.7,1.63-1.43,3.36-2.2,5.14c-0.18-0.74-0.32-1.5-0.38-2.27c0-0.2-0.05-1.44-0.05-1.48
				c0-0.25-0.2-0.45-0.45-0.45c-0.2,0-0.4,0.2-0.4,0.45c0,0.05,0,1.29,0.05,1.54c0.09,1.18,0.28,2.36,0.69,3.47
				c-0.45,1.04-0.9,2.09-1.36,3.15c-0.48-0.81-0.83-1.66-1.02-2.51c-0.05-0.2-0.1-0.44-0.15-0.64c0-0.2-0.05-0.45-0.05-0.65
				c0-0.25-0.25-0.44-0.5-0.44c-0.2,0-0.39,0.25-0.39,0.44v0.05c0,0.25,0.05,0.49,0.1,0.74c0,0.2,0.05,0.45,0.1,0.69
				c0.28,1.11,0.79,2.23,1.5,3.26c-0.23,0.54-1.13,2.62-1.35,3.11c-0.18-0.51-0.33-1.03-0.45-1.53c-0.2-0.84-0.35-1.74-0.5-2.58
				c0-0.25-0.24-0.4-0.49-0.4c-0.2,0.05-0.39,0.25-0.35,0.5c0.1,0.89,0.3,1.78,0.5,2.67c0.18,0.86,0.45,1.68,0.81,2.46
				c-0.35,0.81-0.7,1.63-1.06,2.44c-0.1,0.24,0,0.49,0.25,0.59c0.2,0.1,0.45,0,0.54-0.25c0.35-0.8,0.7-1.59,1.05-2.39
				c0.61-0.33,1.22-0.66,1.87-1.08c0.7-0.45,1.39-0.89,2.13-1.49c0.2-0.1,0.25-0.4,0.1-0.59c-0.15-0.2-0.4-0.25-0.59-0.1
				c-0.75,0.54-1.44,1.04-2.08,1.44c-0.3,0.17-0.59,0.34-0.87,0.5c0.19-0.44,1.07-2.49,1.32-3.06c0.67-0.28,1.35-0.6,1.97-1.06
				c0.74-0.5,1.48-1.04,2.23-1.78c0.2-0.15,0.2-0.44,0-0.64c-0.15-0.15-0.45-0.15-0.59,0c-0.74,0.69-1.44,1.24-2.08,1.69
				c-0.33,0.21-0.67,0.4-1,0.58c0.38-0.87,0.76-1.75,1.15-2.64c0.13-0.04,0.74-0.31,0.94-0.41c0.84-0.45,1.73-1.09,2.48-1.78
				c0.2-0.15,0.2-0.45,0.05-0.59C129.64,85.74,129.34,85.74,129.15,85.89"/>
			<path class="st0" d="M132.21,76.73c0-0.29-0.35-0.5-0.59-0.4c-2.15,1.01-4.03,2.19-5.63,3.52c-0.15-1.35-0.37-2.71-0.73-4.05
				c3.17-4.35,4.57-9.04,4.33-14.02c-0.25-5.1-2.08-10.45-5.44-16.09c-0.2-0.3-0.64-0.3-0.79,0.05l-3.07,7.13
				c-0.27,0.73-0.48,1.45-0.68,2.17c-0.61-1.56-1.6-4.22-1.6-4.84c0-0.3,0.05-0.59,0.05-0.89c0.05-2.38,0.05-4.31-1.04-9.85
				l-0.05-0.05c-1.53-4.51-6.04-8.27-9.8-10.6c-0.69-0.49-1.39-0.89-2.03-1.23c-0.64-0.35-1.24-0.65-1.69-0.84
				c-0.29-0.15-0.64,0.05-0.64,0.35c-0.08,1.32-0.02,2.57,0.12,3.77c-0.16-0.11-0.31-0.21-0.47-0.31c-0.33-0.25-0.67-0.53-1.18-0.85
				c-0.01-0.01-0.01-0.01-0.02-0.01c-0.07-0.05-1.77-1.56-2.62-2.5c-0.73-0.86-1.42-1.75-1.82-2.56c-0.09-0.17-0.14-0.36-0.22-0.5
				l0.01-0.01c-0.02-0.03-0.05-0.05-0.07-0.08c0,0,0,0,0-0.01c0,0,0,0,0,0c-1.06-1.11-2.08-2.12-3.48-3.08
				c-1.44-0.99-3.17-1.83-5.55-2.58c0,0-2.66-0.54-5.5-0.74c-2.47-0.2-4.95-0.4-7.03-1.19l0,0c-0.07-0.02-0.13-0.04-0.17-0.03
				c-0.24,0.04-0.35,0.11-0.39,0.21c-0.04,0.11-0.07,0.1-0.03,0.31c0.27,1.57,0.89,2.91,1.75,4.17c-1.67,0.86-3.13,1.79-4.37,2.72
				c-1.39,1.08-2.48,2.18-3.41,3.36c-0.2,0.25-0.05,0.64,0.29,0.69c2.38,0.45,4.7,0.65,7.08,0.55c2.25-0.09,4.51-0.41,6.93-0.91
				c0.08,0.06,1.28,0.81,1.83,1.11c2.66,1.4,5.64,2.14,8.76,2.13v0.01c0,0,2.78-0.16,3.87-0.26c1.09-0.1,3.28-0.26,3.31-0.27
				c0.06,0.02,2.21,1.49,2.68,1.77c0.91,5.1,3.51,8.93,5.3,11.02c0.44,0.55,0.84,0.94,1.13,1.23c0.3,0.3,0.49,0.5,0.59,0.55
				c1.14,0.89,2.28,1.93,3.46,3.17c1.18,1.22,2.3,2.64,3.52,4.1l-0.01,0c0.35,0.69,0.69,1.43,1.04,2.23
				c0.39,0.78,0.73,1.57,1.07,2.2c-0.24,1.07-0.41,2.12-0.53,3.15c-0.19,1.69-0.23,3.36-0.14,4.97c-0.43-0.48-0.86-0.96-1.29-1.46
				c-0.94-1.04-1.93-2.13-2.82-3.22c-0.25-0.25-0.65-0.2-0.79,0.1c-1.53,4.45-1.83,8.31-1.24,11.68c0.59,3.36,2.13,6.29,4.21,8.76
				c0,0,1.63,1.39,2.47,2.08c0.84,0.69,1.71,1.4,2.55,2.13c-0.64,0.99-1.2,2.03-1.66,3.12c-0.4,0.9-0.74,1.88-1.04,2.87
				c-0.15,0.61-0.28,1.21-0.41,1.81c-0.27-0.56-0.57-1.11-0.93-1.66c-0.59-1.04-1.34-1.98-2.23-2.97c-0.2-0.25-0.64-0.15-0.74,0.15
				c-0.65,2.23-1.44,4.31-2.38,6.29c-0.15,0.4-0.34,0.74-0.54,1.14c-0.15,0.34-0.55,1.04-0.55,1.04c-1.78,2.53-2.97,4.95-3.76,7.17
				c-0.79,2.28-1.09,4.45-1.04,6.48c-0.27,0.1-0.53,0.2-0.79,0.3c-4.35,1.83-7.82,4.56-10.49,8.22c-0.94,1.49-1.93,2.67-3.17,3.52
				c-1.04,0.64-2.23,1.08-3.61,1.27c2.61-2.85,4.38-6.4,5.59-10.28c0.1-0.35-0.24-0.7-0.59-0.54c-1.14,0.49-2.28,0.84-3.47,1.14
				c-1.23,0.24-2.42,0.4-3.71,0.49h-0.05l0.07,0.3l0.01,0.12l-0.08-0.43c-2.92,0.45-5.74,1.24-8.22,2.53
				c-1.37,0.71-2.64,1.59-3.81,2.64c-0.91-0.98-2.28-1.77-4.06-2.38c-1.93-0.69-7.23-1.49-7.23-1.49c-1.53-0.1-3.07-0.25-4.6-0.5
				c-1.53-0.2-3.07-0.5-4.61-0.89c-0.35-0.05-0.64,0.29-0.49,0.64c1.44,2.92,3.71,5.15,6.44,7.03c1,0.68,2.07,1.31,3.19,1.89
				c-0.3-0.09-0.6-0.17-0.91-0.26c-2.51-0.74-5.01-1.57-7.46-2.46c-4.43-4.02-8.9-7.06-13.48-8.93c-0.33-0.13-0.66-0.25-0.99-0.38
				c0.03-2.02-0.17-4.04-0.7-6.15c-0.59-2.18-1.58-4.46-3.17-6.78c0,0-1.83-2.38-2.67-3.72c-0.84-1.39-1.64-2.87-2.28-4.56
				c-0.15-0.3-0.64-0.35-0.79-0.05c-0.75,1.32-1.28,2.74-1.61,4.27c-1.16-3.03-2.89-5.87-5.17-8.48c3.85-3.59,6.54-7.46,7.92-11.53
				c1.44-4.16,1.53-8.57,0.3-13.22c-0.05-0.3-0.39-0.4-0.59-0.3c-1.09,0.5-2.08,1.19-3.02,2.03c-0.69,0.63-1.37,1.36-1.99,2.18
				c-0.07-1.04-0.2-2.09-0.34-3.16c-0.1-0.7-0.25-2.03-0.25-2.03c-0.22-0.85-0.43-1.64-0.65-2.38c0.44-0.59,0.67-1.04,0.85-1.49
				c0.19-0.45,0.9-1.64,0.92-1.71c3.9-2.47,7.5-6.13,10.12-10.13c0.5-0.79,0.99-1.59,1.44-2.38c0.45-0.84,0.84-1.63,1.19-2.43
				c0,0,1.3-4.28,1.61-6.08c0.67-0.37,1.34-0.71,2-1c0.69-0.35,1.42-0.69,2.16-1.13c1.07,0.08,2.06,0.03,3.09-0.01
				c1.04-0.05,2.03-0.1,3.12-0.05c2.33,0.1,4.55-0.1,6.63-0.7c2.08-0.54,4.01-1.49,5.79-2.97c1.73-1.53,3.12-3.07,4.16-4.65
				c0.99-1.64,1.64-3.37,1.78-5.35c0.04-0.3-0.3-0.55-0.59-0.44c-2.72,1.09-5.64,1.74-8.57,2.38c-0.99,0.2-2.03,0.45-3.07,0.69
				l0,0.01c-3.54,0.69-6.1,2.13-8.12,3.95c-2,1.86-3.48,4.05-4.75,6.44c-0.66,0.37-1.33,0.71-2.03,1.03
				c-0.47,0.2-0.95,0.44-1.43,0.68c0.07-0.47,0.14-0.94,0.2-1.41c0.1-0.79,0.25-1.69,0.35-2.48c0.1-0.34-0.3-0.59-0.59-0.44
				c-3.32,1.43-5.2,3.02-7.42,4.9c-0.64,0.55-2.24,1.87-2.24,1.87l0.01,0.01c-5.48,5.24-5.59,12.84-5.64,18.21v1.22
				c-0.51,0.63-0.71,1.14-0.94,1.61c-0.08,0.24-0.18,0.48-0.33,0.75c-0.27-0.88-0.54-1.69-0.81-2.48c-0.64-1.68-1.29-3.22-2.13-4.86
				c-0.15-0.29-0.59-0.35-0.74-0.05c-1.78,2.87-2.62,5.25-3.57,7.97c-0.35,0.89-1.09,2.92-1.09,2.92
				c-1.98,7.52,1.38,14.75,3.71,19.75c0.12,0.32,0.26,0.63,0.35,0.79v1.29c0,0.23,0,0.44-0.02,0.9c-0.51-0.45-1.02-0.89-1.56-1.3
				c-0.84-0.64-1.73-1.29-2.67-1.93c-0.3-0.2-0.65,0-0.7,0.35c-0.25,5.05,0.2,9.5,1.44,13.22c1.29,3.71,3.42,6.69,6.49,8.81
				c2.42,1.68,4.45,3.56,6.09,5.64c0.3,0.44,0.59,0.84,0.89,1.29c0.05,0.08,0.11,0.17,0.16,0.26c0.05,0.14,0.09,0.28,0.14,0.42
				c-1.32-0.05-2.64-0.02-3.97,0.11c-0.34,0-0.54,0.45-0.29,0.75c1.14,1.19,2.22,2.52,3.36,4.01c1.14,1.49,3.37,4.76,3.37,4.76
				c2.57,3.02,5.65,4.75,9.06,5.54c3.38,0.73,7.1,0.6,11.02-0.08l12.36,3.37c-2.47,1.33-5.43,2.37-8.87,3.15
				c-0.15,0.05-0.3,0.3-0.3,0.44c0,0.35,0,0.74,0.15,1.09c0.1,0.39,0.35,0.79,0.74,1.18c0.05,0.05,0.3,0.15,0.34,0.15
				c1.63-0.3,3.22-0.65,4.81-1.14c1.64-0.44,4.9-1.78,4.9-1.78c0.89-0.5,2.18-0.55,3.76-0.6c0.79-0.05,1.64-0.1,2.63-0.2
				c0.71-0.08,1.39-0.18,2.06-0.3c0.05,0.05,4.77,1.54,7.15,2.03c2.33,0.54,4.7,0.89,7.18,0.99c0.1,0,0.3-0.11,0.34-0.2
				c0.4-0.54,0.6-1.14,0.65-1.68c0.04-0.6-0.05-1.14-0.35-1.74c-0.05-0.1-0.25-0.2-0.35-0.24c-1.44-0.15-2.92-0.3-4.41-0.55
				c-1.25-0.2-2.45-0.46-3.65-0.77c1.72-0.86,3.24-1.89,4.59-3.09c0.75,0,1.37-0.05,1.98-0.1c0.67-0.05,1.34-0.09,2.01-0.14
				c4,0.74,7.75,0.79,11.21-0.05c3.47-0.84,6.63-2.53,9.5-5.15c2.72-2.53,4.8-4.7,6.24-6.58c1.48-1.88,2.33-3.41,2.72-4.71
				c0.05-0.3-0.2-0.59-0.55-0.55c-0.81,0.17-1.63,0.31-2.44,0.43c0.65-1.05,1.2-2.16,1.62-3.31c2.12-0.84,4.2-1.83,6.22-4.06
				c1.98-2.18,5.53-10.29,5.84-11.29c0.32-0.99,0.94-6.14,1.09-9.3c0.05-0.65,0.05-1.24,0.05-1.83
				C132.26,77.77,132.26,77.22,132.21,76.73 M75.68,27.52c-2.03,0.09-4.06-0.07-6.12-0.42c0.78-0.9,1.66-1.75,2.75-2.59
				c1.23-0.91,2.68-1.82,4.35-2.69c0.07,0.09,1.12,1.32,1.63,1.85c-1.94,0.46-5.48,1.82-5.48,1.82c-0.25,0.1-0.35,0.35-0.25,0.59
				c0.05,0.2,0.35,0.35,0.54,0.25c0,0,4.5-1.74,5.93-1.92c0.71,0.7,2.58,2.3,2.69,2.39C79.66,27.21,77.64,27.47,75.68,27.52
				 M97.07,29.6c-1.14,0.1-2.28,0.2-3.27,0.25c-3.22,0.1-6.19-0.6-8.86-2.04c-0.55-0.24-5.28-3.15-7.43-6.28
				c-0.06-0.08-0.25-0.28-0.57-0.77c-0.32-0.49-1.08-1.32-1.54-3.28c2.04,0.64,4.27,0.85,6.51,1.03c1.83,0.15,3.45,0.16,5.34,0.7
				c1.89,0.53,3.96,1.53,5.3,2.47c1.31,0.87,2.33,1.89,3.35,2.95c0.36,0.97,1.18,2.13,2.1,3.14c0.54,0.6,1.12,1.17,1.61,1.64
				C98.75,29.48,97.89,29.55,97.07,29.6 M114.24,47.37c-1.18-1.23-3.57-3.27-3.57-3.27c-0.05-0.05-1.19-1.14-1.63-1.63
				c-2.11-2.54-5.55-7.73-5.37-14.66c0.32,0.16,0.67,0.34,1.06,0.56c0.59,0.29,1.29,0.69,1.98,1.13c3.6,2.27,7.93,5.91,9.43,10.14
				l-0.03,0.01c1.14,5.45,1.09,7.33,1.04,9.65v0.89c0,0.16,0.05,0.42,0.13,0.73C116.28,49.64,115.26,48.43,114.24,47.37
				 M49.89,24.99c1.93-1.73,4.41-3.07,7.77-3.76c1.04-0.25,2.03-0.44,3.07-0.69c2.73-0.59,5.4-1.18,8-2.11
				c-0.25,1.5-0.75,2.91-1.56,4.19c-0.99,1.53-2.33,3.02-4.01,4.51c-1.63,1.34-3.47,2.23-5.45,2.77c-1.98,0.54-4.11,0.74-6.34,0.69
				c-1.13-0.1-2.18-0.05-3.21,0c-0.82,0.04-1.64,0.08-2.48,0.04C46.85,28.53,48.15,26.6,49.89,24.99 M26.67,53.16
				c0.05-5.3,0.1-12.77,5.54-17.77c0.74-0.6,1.39-1.14,2.03-1.63c2-1.73,3.73-3.17,6.46-4.47c-0.09,0.6-0.15,1.15-0.22,1.7
				c-0.35,2.52-0.7,5-1.98,8.37c-0.29,0.79-0.69,1.53-1.14,2.33c-0.39,0.79-0.89,1.59-1.39,2.33c-2.44,3.71-5.73,7.13-9.31,9.5
				C26.66,53.39,26.67,53.27,26.67,53.16 M59.99,121.09c-2.36-1.61-4.36-3.5-5.71-5.88c1.26,0.29,2.5,0.53,3.78,0.73
				c1.52,0.24,3.04,0.39,4.6,0.49v0c2.77,0.31,5.15,0.74,7.03,1.39c1.66,0.58,2.91,1.33,3.72,2.2c-0.64,0.64-1.24,1.35-1.8,2.13
				c-0.89-0.38-1.79-0.76-2.69-1.12c-0.32-0.63-0.84-1.31-1.45-1.92c-0.1-0.14-0.73-0.86-0.83-0.86c-0.19-0.12-0.42-0.08-0.61,0.06
				c-0.13,0.17-0.1,0.42,0.01,0.58l0,0.01c0,0,1.25,1.3,1.45,1.55c-0.73-0.29-1.46-0.58-2.18-0.88c-0.53-1.09-1.15-1.89-1.74-2.34
				c-0.15-0.1-0.29-0.2-0.45-0.25c-0.15-0.09-0.3-0.15-0.44-0.15c-0.25-0.05-0.45,0.15-0.5,0.4c-0.04,0.2,0.5,0.49,0.59,0.54
				c0.1,0.05,0.91,0.77,1.24,1.28c-1.83-0.75-3.69-1.51-5.7-2.31c-0.24-0.11-0.49,0-0.59,0.24c-0.1,0.2,0.05,0.5,0.25,0.55
				c1.8,0.75,3.74,1.54,5.73,2.35c-0.13,0.01-0.26,0.02-0.38,0.03c-0.54,0.05-1.14,0-1.78-0.05c-0.25,0-0.45,0.15-0.45,0.39
				c-0.05,0.25,0.15,0.45,0.4,0.5c0.65,0.05,1.29,0.05,1.88,0.05c0.63-0.05,1.26-0.15,1.8-0.34c0.8,0.32,1.61,0.65,2.43,0.97
				c-0.29,0.1-0.59,0.19-0.91,0.26c-0.65,0.1-1.34,0.2-1.98,0.25c-0.25,0-0.44,0.2-0.4,0.44c0,0.25,0.2,0.45,0.45,0.45
				c0.7-0.05,1.44-0.15,2.13-0.3c0.64-0.14,1.24-0.36,1.84-0.63c0.81,0.34,1.62,0.67,2.44,1c-0.53,0.95-1.2,1.82-2.01,2.61
				c-0.41-0.1-0.82-0.22-1.23-0.33C65.03,124,62.34,122.7,59.99,121.09 M26.12,66.82c0.02-0.02,0.03-0.03,0.05-0.05
				c0.74-1.19,1.58-2.13,2.42-2.92c0.75-0.67,1.54-1.19,2.36-1.63c1.04,4.29,0.91,8.33-0.38,12.17c-1.37,3.97-3.96,7.7-7.71,11.18
				c-0.25-0.28-0.51-0.55-0.78-0.83c0.68-1.1,1.35-2.28,2-3.52c0,0,0.01,0,0.01,0c0.54-0.35,0.54-0.35,0.59-0.35
				c0.64-0.45,1.34-0.84,1.98-1.24c0.2-0.15,0.25-0.4,0.15-0.6c-0.15-0.19-0.39-0.29-0.59-0.15c-0.5,0.29-0.94,0.57-1.37,0.83
				c0.45-0.9,0.88-1.83,1.31-2.79c0.44-0.34,0.87-0.63,1.25-0.87c0.45-0.2,0.84-0.4,1.24-0.49c0.25-0.05,0.4-0.3,0.34-0.5
				c-0.05-0.25-0.3-0.39-0.55-0.34c-0.49,0.15-0.94,0.29-1.43,0.59c-0.08,0.04-0.15,0.09-0.22,0.13c0.29-0.68,0.57-1.38,0.84-2.09
				c0-0.01,0.02-0.01,0.02-0.02c0.24-0.3,0.55-0.54,0.94-0.84c0.45-0.25,0.89-0.5,1.44-0.74c0.25-0.1,0.3-0.4,0.2-0.6
				c-0.1-0.25-0.35-0.29-0.55-0.2c-0.56,0.24-1.04,0.51-1.47,0.8c0.24-0.7,0.47-1.41,0.69-2.11c0.03-0.02,0.06-0.04,0.09-0.08
				c0.25-0.3,0.5-0.59,0.75-0.79c0.3-0.25,0.54-0.45,0.89-0.64c0.2-0.09,0.25-0.35,0.15-0.59c-0.1-0.2-0.35-0.25-0.59-0.15
				c-0.25,0.14-0.48,0.31-0.71,0.48c0.14-0.45,0.28-0.92,0.41-1.37c0.05-0.25-0.1-0.49-0.34-0.54c-0.2-0.1-0.44,0.05-0.55,0.3
				c-0.25,1.04-0.55,2.03-0.84,2.97c-0.34,0.99-0.64,1.93-0.99,2.87c-1.7,4.67-3.69,8.66-5.73,11.99c-0.12-0.12-0.24-0.23-0.36-0.36
				c-0.03-0.03,0-2.18,0.05-3c0.72-1.23,1.4-2.77,2.08-4.32c0.44-1.03,1.39-3.02,1.39-3.02C25.78,71.11,26.13,68.97,26.12,66.82
				 M17,60.49L17,60.49c0.41-0.98,0.76-1.98,1.05-2.87c0.86-2.44,1.64-4.59,3.09-7.1c0.66,1.33,1.21,2.64,1.71,4.03
				c0.59,1.68,1.19,3.56,1.78,5.84h0.01c0.05,0.67,0.15,1.3,0.24,1.93c0.45,3.67,0.84,7.03-1.04,10.64c0,0-0.99,2.08-1.43,3.12
				c-0.57,1.3-1.13,2.54-1.7,3.61C20.7,79.66,15.1,67.7,17,60.49 M23.7,101.38c-2.92-1.98-4.9-4.8-6.14-8.37
				c-1.12-3.42-1.57-7.46-1.41-12.07c0.67,0.47,1.32,0.94,1.96,1.42c0.84,0.65,1.63,1.34,2.38,1.98c3.76,3.57,6.33,7.53,7.77,11.88
				c0.01,0.08,0.05,0.14,0.11,0.19c-0.09,0.88-0.14,1.78-0.11,2.73c0.07,2.32,0.52,4.85,1.29,7.57
				C27.94,104.76,26.01,102.97,23.7,101.38 M29.14,99.11c-0.09-2.77,0.37-5.22,1.41-7.4c0.6,1.38,1.27,2.64,2.01,3.78
				c0.84,1.38,1.78,2.62,2.72,3.76c1.48,2.23,2.42,4.41,3.02,6.49c0.5,1.96,0.66,3.8,0.64,5.62c-0.8-0.28-1.61-0.51-2.42-0.72
				c-0.15-0.32-0.28-0.64-0.42-0.95c0.19-0.37-0.03,0.11,0.02,0.01c0.5-1.19,0.99-2.43,1.44-3.52c0.1-0.25-0.05-0.5-0.25-0.59
				c-0.25-0.05-0.5,0.04-0.59,0.25c-0.38,0.97-0.72,1.86-1.09,2.73c-0.35-0.86-0.68-1.73-1-2.59c0.2-0.43,0.4-0.84,0.6-1.28
				c0.3-0.59,0.54-1.24,0.79-1.78c0.1-0.2,0-0.5-0.2-0.55c-0.25-0.09-0.5,0-0.59,0.2c-0.25,0.6-0.55,1.19-0.79,1.79
				c-0.07,0.16-0.15,0.31-0.22,0.47c-0.09-0.27-0.19-0.54-0.28-0.81c-0.16-0.48-0.31-0.95-0.45-1.42c0.05-0.05,0.09-0.11,0.1-0.17
				c0.05-0.4,0.15-0.79,0.3-1.24c0.2-0.39,0.4-0.79,0.69-1.18c0.15-0.16,0.15-0.45-0.05-0.6c-0.2-0.15-0.44-0.15-0.59,0.05
				c-0.4,0.45-0.64,0.94-0.84,1.44c-0.03,0.06-0.04,0.12-0.06,0.18c-0.37-1.27-0.7-2.53-0.98-3.79c-0.05-0.24-0.29-0.4-0.49-0.29
				c-0.25,0.05-0.39,0.25-0.35,0.49c0.29,1.35,0.65,2.71,1.03,4.05c-0.51-0.28-1.04-0.62-1.58-1.08c-0.2-0.15-0.44-0.1-0.59,0.1
				c-0.2,0.15-0.15,0.44,0.05,0.59c0.64,0.54,1.39,1.03,2.08,1.34c0.14,0.04,0.26,0.09,0.37,0.13c0.17,0.55,0.35,1.1,0.53,1.65
				c0.11,0.35,0.24,0.71,0.36,1.06c-0.19-0.09-0.38-0.18-0.56-0.27c-0.55-0.3-1.04-0.55-1.59-0.74c-0.24-0.1-0.5,0-0.59,0.2
				c-0.05,0.25,0.05,0.5,0.24,0.59c0.55,0.2,1.04,0.45,1.54,0.69c0.42,0.23,0.85,0.47,1.35,0.66c0.48,1.32,1.01,2.62,1.59,3.93
				c-1.25-0.27-2.52-0.46-3.79-0.57c-0.17-0.31-0.35-0.61-0.54-0.92C29.91,105.24,29.23,102,29.14,99.11 M53,123.91
				c-3.86,0.74-7.53,0.89-10.79,0.1c-3.24-0.74-6.15-2.36-8.57-5.2h0.01c-1.14-1.64-2.23-3.27-3.37-4.75
				c-0.95-1.23-1.89-2.39-2.83-3.42c4.48-0.28,8.8,0.47,13.03,2.23c4.51,1.88,8.96,4.85,13.31,8.86c0.05,0,5.2,1.83,7.73,2.58
				c1.97,0.58,3.95,1.12,5.92,1.64c0.27,0.11,0.54,0.22,0.82,0.33c-0.56,0.46-1.15,0.89-1.8,1.29L53,123.91z M85.68,129.65
				c1.35,0.23,2.8,0.42,4.21,0.56c0.15,0.36,0.2,0.69,0.2,1.02c-0.04,0.36-0.18,0.69-0.37,1.07c-2.3-0.11-4.55-0.44-6.81-0.92
				c-1.91-0.41-3.82-0.94-5.73-1.53c1.37-0.33,2.65-0.76,3.85-1.27c0.05,0.07,0.12,0.14,0.2,0.18
				C82.71,129.11,84.19,129.4,85.68,129.65 M86.47,124.01c-3.12,2.97-7.38,5-13.03,5.65c-0.89,0.1-1.78,0.1-2.57,0.15
				c-1.69,0.05-3.02,0.15-4.16,0.74l0.01,0.01c-1.57,0.64-3.14,1.23-4.71,1.67c-1.46,0.42-2.95,0.8-4.46,1.04
				c-0.17-0.23-0.3-0.45-0.34-0.65c-0.06-0.18-0.1-0.33-0.12-0.49c3.65-0.88,6.79-2.04,9.33-3.52c2.49-1.46,4.39-3.27,5.59-5.48
				c0.12-0.04,0.22-0.12,0.25-0.26c0.03-0.06,0.03-0.14,0.03-0.21c1.66-2.24,3.69-3.93,6.01-5.13c2.38-1.24,5.05-1.98,7.92-2.42l0,0
				c1.32-0.05,2.54-0.2,3.76-0.5c0.97-0.22,1.88-0.52,2.78-0.85C91.42,117.74,89.42,121.28,86.47,124.01 M119.54,59.75
				c0.25-2.13,0.74-4.31,1.58-6.59l2.67-6.26c3.03,5.22,4.72,10.21,4.91,14.88c0.23,4.62-0.99,8.93-3.74,12.97
				c-0.13-0.4-0.26-0.8-0.42-1.19c-0.89-2.37-2.27-4.74-4.39-7.06l0.03-0.02c-0.21-0.25-0.44-0.5-0.66-0.75
				C119.3,63.8,119.3,61.82,119.54,59.75 M119.64,81.88c-0.78-0.64-1.56-1.28-2.34-1.96c-2.02-2.37-3.45-5.14-4.04-8.35
				c-0.51-3.07-0.26-6.55,1-10.49c0.76,0.89,1.55,1.78,2.36,2.68c0.71,0.78,1.4,1.57,2.08,2.35c0.04,0.08,0.09,0.14,0.16,0.18
				c0.21,0.25,0.42,0.49,0.64,0.73v0.05c2.03,2.23,3.36,4.5,4.26,6.83c0.81,2.19,1.25,4.42,1.41,6.66c-0.44,0.39-0.84,0.8-1.24,1.22
				c-0.69-1.09-1.35-2.19-1.99-3.29c0.25-0.65,0.44-1.71,0.53-3.01c0-0.34,0.1-1.88,0.1-1.93c0-0.25-0.2-0.44-0.45-0.44
				c-0.25,0-0.44,0.2-0.44,0.44c0,0-0.05,1.58-0.1,1.83c-0.06,0.79-0.14,1.47-0.26,2.02c-0.56-0.98-1.88-3.47-2.01-3.73
				c0.16-0.42,0.3-1.04,0.38-1.75c0.15-0.84,0.25-1.83,0.3-2.77c0-0.2-0.15-0.44-0.4-0.44c-0.25,0-0.44,0.15-0.5,0.39
				c-0.05,0.94-0.15,1.88-0.25,2.72c-0.05,0.23-0.09,0.45-0.13,0.66c-0.95-1.97-1.82-3.95-2.64-5.96c-0.1-0.25-0.35-0.35-0.59-0.25
				c-0.2,0.1-0.3,0.35-0.2,0.55c0.84,2.09,1.73,4.15,2.73,6.19c-0.31-0.13-0.62-0.29-0.95-0.49c-0.6-0.35-1.24-0.85-1.88-1.34
				c-0.2-0.15-0.44-0.15-0.59,0.05c-0.15,0.2-0.15,0.45,0.05,0.59c0.64,0.54,1.34,1.04,1.98,1.49c0.65,0.37,1.3,0.65,1.96,0.81
				c0.13,0.24,1.33,2.58,1.84,3.49c-0.36-0.17-2.56-1.38-3.3-1.93c-0.2-0.09-0.45-0.04-0.6,0.15c-0.15,0.2-0.1,0.45,0.1,0.6
				c0.79,0.54,3.76,2.15,4.53,2.48c0.69,1.18,1.41,2.37,2.17,3.55c-0.41,0.48-0.79,0.97-1.16,1.48
				C121.34,83.26,120.49,82.55,119.64,81.88 M119.32,108.65c-0.41,1.06-1.17,2.31-2.3,3.77c-1.44,1.78-3.42,3.91-6.14,6.44
				c-2.72,2.52-5.79,4.16-9.11,4.95c-3.37,0.79-6.98,0.75-10.89,0c0,0,0.94-0.53,1.48-0.89c1.38-0.94,2.48-2.23,3.46-3.76
				l-0.03-0.02c2.57-3.5,5.93-6.12,10.13-7.85c0.8-0.35,1.64-0.64,2.52-0.94c0.85-0.24,1.78-0.5,2.73-0.69
				C111.18,109.65,116.88,109.1,119.32,108.65 M116.37,108.12c-0.03,0.04-0.05,0.09-0.06,0.13c-1.25,0.16-2.5,0.28-3.74,0.37
				c0.17-0.38,0.34-0.77,0.49-1.15c0.25-0.64,0.79-2.14,0.82-2.22c0.51-0.18,1.05-0.52,1.56-0.95c0.59-0.5,1.19-1.09,1.78-1.74
				c0.15-0.14,0.15-0.44-0.05-0.59c-0.15-0.2-0.45-0.15-0.59,0c-0.54,0.65-1.14,1.19-1.69,1.64c-0.22,0.2-0.44,0.37-0.66,0.5
				c0.31-1.09,0.58-2.22,0.8-3.37c0.31-0.16,0.68-0.41,1.05-0.7c0.45-0.4,0.89-0.84,1.39-1.39c0.15-0.19,0.15-0.44-0.05-0.65
				c-0.15-0.14-0.45-0.14-0.6,0.05c-0.49,0.5-0.94,0.94-1.33,1.29c-0.08,0.08-0.16,0.15-0.24,0.22c0.29-1.7,0.5-3.44,0.63-5.22
				c0-0.25-0.15-0.44-0.39-0.44c-0.25-0.05-0.45,0.15-0.5,0.4c-0.12,1.78-0.32,3.53-0.62,5.25c-0.13-0.14-0.25-0.29-0.37-0.45
				c-0.25-0.45-0.49-0.94-0.74-1.49c-0.05-0.25-0.3-0.35-0.54-0.3c-0.25,0.1-0.35,0.35-0.25,0.59c0.25,0.64,0.49,1.19,0.84,1.68
				c0.24,0.4,0.55,0.72,0.87,0.99c-0.23,1.15-0.49,2.27-0.82,3.37c-0.1-0.15-0.21-0.31-0.3-0.5c-0.3-0.54-0.59-1.24-0.94-2.18
				c-0.1-0.2-0.35-0.34-0.6-0.25c-0.2,0.1-0.35,0.35-0.25,0.54c0.34,0.99,0.69,1.68,0.99,2.28c0.25,0.5,0.51,0.86,0.76,1.18
				c-0.02,0.07-0.8,2.25-0.83,2.3c-0.37-0.5-0.72-1.01-1.02-1.49c-0.05-0.15-0.3-0.65-0.35-0.79c-0.1-0.2-0.34-0.3-0.54-0.25
				c-0.25,0.1-0.35,0.34-0.25,0.59c0.05,0.1,0.3,0.69,0.39,0.84c0.37,0.68,0.83,1.33,1.36,2.01c-0.08,0.16-0.15,0.31-0.22,0.46
				c-0.03,0-4,1.01-4.31,1.12c-0.01-1.85,0.28-3.79,0.99-5.86c0.74-2.18,1.93-4.5,3.66-6.98c0,0,0.99-1.93,1.14-2.33
				c0.83-1.76,1.54-3.67,2.18-5.63c0.63,0.72,1.16,1.48,1.63,2.26c0.59,0.94,1.09,1.93,1.44,2.88
				C120.13,99.11,119.05,104.1,116.37,108.12 M131.38,80.1c-0.15,3.12-0.7,6.78-1.14,9.2c0,0-3.67,8.77-5.6,10.84
				c-1.7,1.83-3.44,2.78-5.22,3.55c0.89-3.04,0.91-6.36-0.26-9.66c0.01-0.03,0.38-2.11,0.63-3.1c0.3-0.94,0.59-1.88,0.99-2.77
				c1.14-2.61,2.78-4.94,4.97-6.95c0.15-0.03,0.26-0.12,0.3-0.26c1.52-1.34,3.29-2.53,5.35-3.55c0.01,0.29,0.03,0.59,0.03,0.9
				C131.42,78.86,131.38,79.45,131.38,80.1"/>
			<path class="st0" d="M109.99,113.12c0.15-0.65,0.44-1.24,0.74-1.83c0.15-0.2,0.05-0.44-0.15-0.6c-0.2-0.1-0.49-0.05-0.59,0.2
				c-0.35,0.64-0.65,1.28-0.85,1.98c-0.17,0.57-0.31,1.19-0.33,1.8c-1,0.62-2.01,1.23-3.03,1.82c0.08-0.8,0.21-1.58,0.44-2.34
				c0.05-0.25,0.3-0.99,0.4-1.24c0.1-0.25-0.05-0.5-0.25-0.55c-0.25-0.1-0.49,0-0.59,0.25c-0.05,0.2-0.34,1.09-0.4,1.28
				c-0.28,1.05-0.43,2.08-0.53,3.12c-1.11,0.62-2.24,1.22-3.38,1.8c0.03-0.5,0.11-0.99,0.25-1.51c0.25-0.69,0.59-1.43,1.09-2.13
				c0.15-0.2,0.1-0.49-0.1-0.6c-0.2-0.15-0.44-0.09-0.59,0.1c-0.55,0.79-0.94,1.58-1.24,2.38c-0.22,0.71-0.31,1.46-0.3,2.21
				c-1.83,0.92-3.71,1.79-5.64,2.59c-0.2,0.1-0.3,0.35-0.2,0.54c0.05,0.25,0.35,0.35,0.55,0.25c0.72-0.29,1.41-0.61,2.11-0.92
				c0.04,0.03,0.07,0.05,0.11,0.07c0.64,0.3,1.29,0.45,1.98,0.55c0.64,0.05,1.33,0.05,1.97-0.05c0.25-0.05,0.45-0.25,0.4-0.5
				c-0.05-0.25-0.24-0.39-0.49-0.39c-0.59,0.1-1.24,0.1-1.83,0.05c-0.34-0.03-0.69-0.11-1.04-0.22c0.89-0.41,1.77-0.84,2.63-1.26
				c0.71,0.21,1.35,0.35,1.93,0.4c0.69,0.09,1.29,0.15,1.88,0.09c0.25,0,0.44-0.2,0.44-0.44c-0.05-0.25-0.24-0.45-0.49-0.45
				c-0.54,0.05-1.09,0.05-1.68-0.05c-0.29-0.04-0.58-0.1-0.87-0.16c1.06-0.55,2.11-1.11,3.15-1.69c0.49,0.14,0.99,0.24,1.48,0.32
				c0.6,0.05,1.19,0.1,1.78,0.1c0.25,0.05,0.45-0.15,0.45-0.4c0-0.25-0.2-0.44-0.45-0.44c-0.6,0-2-0.2-2.17-0.23
				c0.92-0.55,1.84-1.1,2.73-1.67c0.48,0.12,0.93,0.21,1.41,0.21c0.5,0.05,1.04,0.05,1.59,0c0.25,0,0.4-0.25,0.4-0.49
				c-0.05-0.2-0.25-0.4-0.5-0.35c-0.49,0.04-1.68-0.04-1.8-0.06c1.54-0.98,3.06-1.99,4.57-3.02c0.2-0.14,0.25-0.44,0.1-0.64
				c-0.15-0.2-0.44-0.25-0.64-0.1c-1.52,1.07-3.09,2.12-4.68,3.14C109.81,113.75,109.88,113.44,109.99,113.12"/>
			<path class="st0" d="M26.08,98.7c0.14-0.72,0.19-1.44,0.14-2.12c0-0.74-0.05-1.43-0.15-2.18c0-0.24-0.25-0.4-0.49-0.4
				c-0.2,0.05-0.4,0.25-0.35,0.5c0.05,0.7,0.1,1.39,0.15,2.08c0,0.23-0.01,0.46-0.02,0.68c-0.39-0.75-0.81-1.51-1.21-2.27
				c0.01-1.37-0.26-3.19-0.4-4.51v-0.05c-0.05-0.25-0.3-0.4-0.5-0.4c-0.25,0.05-0.44,0.25-0.39,0.5v0.05
				c0.11,0.77,0.24,1.7,0.32,2.59c-0.04-0.07-0.08-0.15-0.12-0.22c-0.31-0.59-0.64-1.19-0.97-1.78c0.01-0.04-0.12-1.44-0.22-2.13
				c-0.05-0.74-0.15-1.44-0.2-2.13c0-0.25-0.2-0.44-0.44-0.44c-0.25,0-0.45,0.25-0.45,0.44v0.05c0.05,0.69,0.15,1.44,0.25,2.18
				c0,0.03,0,0.06,0.01,0.08c-0.82-1.48-1.65-2.96-2.48-4.44c-0.15-0.25-0.4-0.3-0.59-0.2c-0.25,0.15-0.3,0.4-0.2,0.59
				c0.96,1.69,1.89,3.35,2.81,5c-0.16-0.07-0.33-0.13-0.5-0.2c-0.64-0.25-1.28-0.5-1.88-0.69c-0.2-0.1-0.44,0-0.55,0.25
				c-0.1,0.25,0.05,0.5,0.25,0.54c0.59,0.2,1.23,0.5,1.88,0.74c0.5,0.21,0.97,0.39,1.46,0.58c0.35,0.65,0.72,1.3,1.07,1.94
				c0.17,0.32,0.34,0.65,0.51,0.97c-0.29-0.13-0.57-0.27-0.86-0.43c-0.74-0.4-1.44-0.74-2.08-0.94c-0.25-0.1-0.5,0.05-0.59,0.25
				c-0.05,0.25,0.1,0.5,0.29,0.55c0.6,0.2,1.29,0.54,1.98,0.89c0.62,0.38,1.28,0.71,1.9,0.91c0.4,0.77,0.8,1.53,1.19,2.29
				c-0.02-0.01-0.05-0.02-0.07-0.03c-0.99-0.4-1.98-0.95-3.02-1.63c-0.2-0.14-0.5-0.1-0.59,0.1c-0.15,0.2-0.1,0.44,0.1,0.59
				c1.09,0.75,2.13,1.34,3.22,1.78c0.2,0.05,0.4,0.15,0.59,0.2c0.12,0.05,0.23,0.1,0.35,0.13c0.4,0.78,0.8,1.57,1.18,2.35
				c0.1,0.25,0.35,0.3,0.6,0.2c0.2-0.1,0.3-0.35,0.2-0.59C26.85,100.2,26.46,99.45,26.08,98.7"/>
			<path class="st0" d="M51.72,121.98c-1.59-0.65-3.18-1.33-4.76-2.02l-2.56-4.06c-0.15-0.25-0.4-0.3-0.6-0.15
				c-0.19,0.09-0.3,0.39-0.15,0.59l1.83,2.95c-0.88-0.4-1.75-0.8-2.62-1.21c-0.34-0.62-0.76-1.28-1.19-1.89
				c-0.45-0.69-0.84-1.39-1.19-2.02c-0.15-0.2-0.4-0.3-0.59-0.2c-0.25,0.15-0.3,0.4-0.2,0.6v0.04l0.02-0.01
				c0.34,0.68,0.78,1.36,1.22,2.04c0.17,0.26,0.33,0.52,0.49,0.77c-0.91-0.45-1.82-0.91-2.73-1.38c-0.29-0.44-0.64-0.93-1.08-1.62
				c-0.39-0.54-0.75-1.13-1.09-1.58c-0.1-0.25-0.4-0.3-0.6-0.15c-0.2,0.15-0.24,0.39-0.15,0.59c0.4,0.55,0.74,1.09,1.09,1.63
				c0.05,0.08,0.11,0.18,0.16,0.26c-1.79-0.95-3.57-1.93-5.31-2.98c-0.2-0.1-0.49-0.05-0.59,0.15c-0.15,0.2-0.05,0.5,0.15,0.59
				c1.85,1.09,3.71,2.13,5.58,3.13c-0.16,0.01-0.32,0.02-0.48,0.04c-0.69,0.05-1.34,0.1-1.98,0.2c-0.25,0-0.4,0.25-0.4,0.5
				c0.05,0.25,0.3,0.4,0.55,0.35c0.59-0.1,1.24-0.15,1.88-0.2c0.58-0.04,1.19-0.09,1.78-0.17c0.88,0.46,1.77,0.91,2.66,1.35
				c-0.31,0.02-0.62,0.04-0.92,0.06c-0.9,0.05-1.78,0.1-2.58,0.2c-0.25,0-0.39,0.25-0.39,0.5c0.05,0.24,0.25,0.4,0.49,0.35
				c0.79-0.1,1.68-0.15,2.52-0.2c0.83-0.04,1.64-0.1,2.39-0.18c0.97,0.45,1.93,0.9,2.9,1.33l-3.35,0.83c-0.25,0.05-0.39,0.3-0.3,0.5
				c0.05,0.25,0.3,0.39,0.5,0.34l4.43-1.09c0.71,0.32,1.43,0.63,2.15,0.94c-1.12,0.45-3.21,0.75-3.36,0.75
				c-0.25,0.05-0.39,0.3-0.34,0.54c0,0.2,0.24,0.4,0.49,0.35c0.1,0,2.71-0.4,4.33-1.17c0.54,0.22,1.07,0.45,1.62,0.68
				c0.2,0.1,0.44,0,0.54-0.25C52.06,122.32,51.97,122.07,51.72,121.98"/>
			<path class="st0" d="M89.29,115.98c-1.91,1.3-3.82,2.55-5.73,3.76c0.05-0.28,0.11-0.56,0.19-0.84c0.15-0.5,0.34-1.04,0.64-1.58
				c0.15-0.2,0.05-0.44-0.15-0.59c-0.2-0.11-0.49-0.05-0.59,0.19c-0.35,0.59-0.59,1.19-0.74,1.78c-0.18,0.55-0.27,1.09-0.29,1.63
				c-0.73,0.46-1.45,0.9-2.18,1.35c0.09-0.53,0.29-1.17,0.58-1.88c0.05-0.2,0.15-0.4,0.3-0.65c0.09-0.25,0.2-0.5,0.34-0.69
				c0.1-0.25,0-0.5-0.2-0.6c-0.2-0.15-0.5-0.05-0.59,0.15v0.05c-0.15,0.25-0.25,0.49-0.35,0.69c-0.1,0.2-0.2,0.44-0.35,0.69
				c-0.43,1.08-0.66,2.03-0.65,2.78c-0.86,0.51-1.71,1.02-2.56,1.51c0.01-0.39,0.06-0.82,0.19-1.32c0.25-0.84,0.65-1.78,1.29-2.92
				c0.1-0.2,0-0.45-0.2-0.59c-0.2-0.1-0.44-0.05-0.59,0.2c-0.64,1.19-1.09,2.18-1.33,3.07c-0.22,0.78-0.27,1.47-0.22,2.07
				c-0.59,0.34-1.19,0.68-1.78,1.01c0.09-0.49,0.18-0.98,0.31-1.5c0.2-0.74,0.5-1.49,0.79-2.28c0.1-0.2,0-0.45-0.2-0.55
				c-0.25-0.1-0.49,0-0.59,0.2c-0.35,0.84-0.64,1.63-0.84,2.43c-0.18,0.73-0.32,1.46-0.41,2.22c-1.12,0.62-2.24,1.22-3.35,1.79
				c-0.25,0.1-0.3,0.35-0.2,0.59c0.1,0.2,0.35,0.29,0.59,0.15c1.16-0.59,2.32-1.21,3.48-1.83c0.72,0.17,1.44,0.3,2.21,0.4
				c0.79,0.15,1.63,0.2,2.48,0.15c0.25,0,0.44-0.2,0.44-0.44c0-0.2-0.2-0.4-0.44-0.4c-0.79,0-1.59-0.05-2.38-0.15
				c-0.39-0.05-0.78-0.11-1.16-0.18c0.54-0.3,1.08-0.6,1.62-0.92c0.69,0.17,1.45,0.26,2.22,0.31c0.79,0.05,1.64,0,2.52-0.05
				c0.25-0.05,0.4-0.25,0.4-0.49c0-0.25-0.25-0.4-0.44-0.4c-0.84,0.1-1.69,0.1-2.48,0.05c-0.35,0-0.72-0.02-1.08-0.07
				c0.74-0.44,1.48-0.88,2.22-1.34c0.7,0.17,1.49,0.22,2.23,0.26c0.84,0.05,1.64,0,2.43,0c0.25,0,0.45-0.2,0.45-0.44
				c0-0.25-0.2-0.44-0.45-0.44c-0.79,0.05-1.58,0.05-2.37,0c-0.4,0-0.78-0.03-1.15-0.07c0.68-0.42,1.36-0.84,2.04-1.27l3.36,0.1
				c0.25,0,0.45-0.2,0.45-0.45c0-0.24-0.2-0.44-0.4-0.44l-2.06-0.06c1.73-1.11,3.48-2.26,5.23-3.46c0.2-0.15,0.25-0.4,0.1-0.6
				C89.79,115.89,89.49,115.84,89.29,115.98"/>
			<path class="st0" d="M41.27,41.38l-2.18,1.78v50.89c0.55,9.6,6.04,13.02,14.36,12.68l11.93,0.34c4.31,1.19,6.48,3.66,7.72,6.19
				c0.15,0.35,0.3,0.69,0.45,1.04c1.33-3.41,3.71-6.49,8.26-7.23c4.21-0.09,8.62-0.25,12.82-0.34c6.88-0.1,10.89-3.27,11.19-10.6
				v-1.88v-0.2V41.38H73.1H41.27z M95.68,104.25c-4.65,0-9.26,0-13.86,0.35c-3.76,0.5-6.43,1.78-8.32,4.7
				c-0.15-0.2-0.3-0.35-0.39-0.54c-2.18-2.68-4.8-3.96-7.72-4.16c-4.85-0.35-9.66-0.35-14.51-0.35c-5.59-0.3-9.11-3.17-9.11-10.2
				V42.77H73.1h31.34v51.28C104.69,100.25,101.97,103.81,95.68,104.25"/>
			<polygon class="st0" points="64.84,44.85 44.04,44.85 44.04,46.92 63.1,46.92 63.1,48.9 44.29,48.9 44.29,50.24 63.1,50.24 
				63.1,52.47 44.29,52.47 44.29,53.85 63.1,53.85 63.1,55.88 44.29,55.88 44.29,57.27 63.1,57.27 63.1,58.91 44.29,58.91 
				44.29,60.29 63.1,60.29 63.1,62.17 44.29,62.17 44.29,63.51 63.1,63.51 63.1,65.39 44.04,65.39 44.04,66.83 64.84,66.83 			"/>
			<polygon class="st0" points="82.06,46.92 101.12,46.92 101.12,48.9 82.31,48.9 82.31,50.24 101.12,50.24 101.12,52.47 
				82.31,52.47 82.31,53.85 101.12,53.85 101.12,55.88 82.31,55.88 82.31,57.27 101.12,57.27 101.12,58.91 82.31,58.91 82.31,60.29 
				101.12,60.29 101.12,62.17 82.31,62.17 82.31,63.51 101.12,63.51 101.12,65.39 82.06,65.39 82.06,66.83 102.86,66.83 
				102.86,44.85 82.06,44.85 			"/>
			<path class="st0" d="M82.06,81.97h18.86v0.72v0.97v0.6H82.06v1.29h18.86v2.42H82.06v1.19h18.86l-0.05,2.43H82.01v1.19h18.86v2.08
				L82.01,94.9v1.19h18.86c0,0.84-0.3,1.83-0.35,2.03H82.01v1.19l17.77,0.05c0,0.99-2.97,2.28-5.1,2.13H82.01v1.24h12.67
				c4.7,0.39,8.02-2.43,8.17-6.43V79.74H82.06V81.97z"/>
			<path class="st0" d="M44.05,81.97H63v2.28H44.05v1.29H63v2.42H44.05v1.19H63v2.43H44.05v1.19H63v2.08H44.05
				c0,0.35,0.05,0.89,0.19,1.24H63v2.03H44.84c0.1,0.35,0.4,0.84,0.89,1.24H63v2.13H47.07c0.84,0.74,2.28,1.29,3.56,1.24h14.36
				V79.74H44.05V81.97z"/>
		</g>
	</g>
</g>
<g>
	<path class="st1" d="M214,37.12v43.91c0,22.99-11.17,32.96-28.69,32.96c-10.51,0-19.71-5.69-24.2-15l10.51-4.82
		c2.52,5.04,8.1,8.32,13.69,8.32c9.85,0,15.99-5.69,15.99-20.26v-0.77c-3.61,5.26-10.73,7.88-16.97,7.88
		c-13.47,0-25.18-10.4-25.18-26.72c0-16.42,11.61-26.61,25.07-26.61c6.57,0,13.47,2.52,17.08,7.77v-6.68H214z M201.08,62.52
		c0-8.98-7.45-14.67-14.78-14.67c-7.88,0-14.34,6.13-14.34,14.67s6.46,14.89,14.34,14.89C194.07,77.42,201.08,71.5,201.08,62.52z"/>
	<path class="st1" d="M222.1,62.52c0-16.21,12.59-26.5,27.15-26.5c14.56,0,27.26,10.29,27.26,26.5c0,16.21-12.7,26.83-27.26,26.83
		C234.7,89.35,222.1,78.73,222.1,62.52z M263.71,62.52c0-8.76-6.57-14.67-14.45-14.67s-14.34,5.91-14.34,14.67
		c0,8.98,6.46,15,14.34,15S263.71,71.5,263.71,62.52z"/>
	<path class="st1" d="M331.16,37.12l-21.57,51.13h-11.61l-21.35-51.13h13.69l13.58,35.04l13.47-35.04H331.16z"/>
	<path class="st2" d="M386.24,37.12v43.91c0,22.99-11.17,32.96-28.69,32.96c-10.51,0-19.71-5.69-24.2-15l10.51-4.82
		c2.52,5.04,8.1,8.32,13.69,8.32c9.85,0,15.99-5.69,15.99-20.26v-0.77c-3.61,5.26-10.73,7.88-16.97,7.88
		c-13.47,0-25.18-10.4-25.18-26.72c0-16.42,11.61-26.61,25.07-26.61c6.57,0,13.47,2.52,17.08,7.77v-6.68H386.24z M373.32,62.52
		c0-8.98-7.45-14.67-14.78-14.67c-7.88,0-14.34,6.13-14.34,14.67s6.46,14.89,14.34,14.89C366.31,77.42,373.32,71.5,373.32,62.52z"/>
	<path class="st2" d="M433.21,37.78l-2.52,12.04c-2.96-1.53-5.58-1.86-7.45-1.86c-8.32,0-12.92,8.1-12.92,22.45v17.85h-12.81V37.12
		h12.7v10.95c2.74-8.54,8.32-12.04,14.67-12.04C427.96,36.03,431.24,36.68,433.21,37.78z"/>
</g>
<g>
	<path class="st3" d="M444.38,82.88c0,2.66-1.89,5.38-5.81,5.38h-7.93v-18.9h7.35c3.29,0,5.38,1.98,5.38,4.86
		c0,1.48-0.55,3.26-2.47,3.95C443.2,78.63,444.38,80.8,444.38,82.88z M433.98,72.35v4.64h3.87c1.4,0,2.17-0.93,2.17-2.3
		c0-1.32-0.71-2.33-2.17-2.33H433.98z M441,82.55c0-1.34-0.88-2.74-2.88-2.74h-4.14v5.46h4.06C439.99,85.27,441,83.98,441,82.55z"/>
	<path class="st3" d="M459.38,85.27v2.99H447.5v-18.9h11.6v2.99h-8.28v5.1h7.24v3.05h-7.24v4.77H459.38z"/>
	<path class="st3" d="M474.9,72.35h-5.4v15.91h-3.35V72.35h-5.4v-2.99h14.15V72.35z"/>
	<path class="st3" d="M485.87,83.62h-7.41l-1.65,4.64h-3.57l7.1-18.9h3.62l7.08,18.9h-3.54L485.87,83.62z M484.85,80.71l-2.69-7.63
		l-2.69,7.63H484.85z"/>
</g>
</svg>
